<?xml version="1.0" standalone="no"?>
<!DOCTYPE svg PUBLIC "-//W3C//DTD SVG 20010904//EN"
 "http://www.w3.org/TR/2001/REC-SVG-20010904/DTD/svg10.dtd">
<svg version="1.0" xmlns="http://www.w3.org/2000/svg"
 width="500.000000pt" height="500.000000pt" viewBox="0 0 500.000000 500.000000"
 preserveAspectRatio="xMidYMid meet">

<g transform="translate(0.000000,500.000000) scale(0.100000,-0.100000)"
fill="#000000" stroke="none">
<path d="M0 2500 l0 -2500 2500 0 2500 0 0 2500 0 2500 -2500 0 -2500 0 0
-2500z m3370 732 l0 -447 -157 -155 c-87 -85 -227 -222 -310 -305 l-153 -150
0 753 0 752 310 0 310 0 0 -448z m708 42 c12 -8 22 -20 22 -26 0 -6 -29 -103
-65 -215 -54 -166 -70 -206 -91 -219 -23 -16 -26 -15 -44 1 -27 24 -26 34 15
155 19 57 34 105 32 106 -1 1 -400 -391 -887 -872 -487 -481 -893 -876 -902
-880 -10 -3 -24 -2 -32 3 -7 4 -168 187 -357 406 l-344 397 -262 -262 -263
-263 0 65 0 65 259 259 c226 226 262 258 280 250 11 -5 174 -187 361 -404 188
-217 345 -395 350 -395 9 0 1741 1707 1737 1711 -2 2 -58 -6 -125 -18 l-123
-22 -20 21 c-24 23 -19 57 9 68 12 5 359 74 422 84 3 1 16 -6 28 -15z m-2318
-785 c0 -242 -4 -439 -8 -437 -5 2 -69 73 -143 158 -131 150 -136 155 -177
158 -42 3 -44 2 -161 -112 -65 -64 -121 -116 -124 -116 -4 0 -7 178 -7 395 l0
395 310 0 310 0 0 -441z m800 -298 l0 -209 -202 -196 c-111 -108 -205 -195
-209 -194 -4 2 -51 53 -103 113 l-95 110 -1 293 0 292 305 0 305 0 0 -209z"/>
</g>
</svg>
